<?xml version="1.0" standalone="no"?>
<!DOCTYPE svg PUBLIC "-//W3C//DTD SVG 20010904//EN"
 "http://www.w3.org/TR/2001/REC-SVG-20010904/DTD/svg10.dtd">
<svg version="1.0" xmlns="http://www.w3.org/2000/svg"
 width="600.000000pt" height="480.000000pt" viewBox="0 0 600.000000 480.000000"
 preserveAspectRatio="xMidYMid meet">
<g transform="translate(0.000000,480.000000) scale(0.100000,-0.100000)"
fill="#D4AF37" stroke="none">
<path d="M2588 3706 c-49 -18 -83 -40 -105 -69 l-18 -24 -40 26 c-54 35 -159
37 -223 3 -107 -57 -152 -207 -92 -309 19 -33 19 -33 -1 -43 -11 -6 -17 -15
-14 -21 4 -5 1 -8 -5 -7 -6 2 -26 -14 -43 -35 -26 -32 -32 -48 -35 -101 -5
-80 9 -123 54 -170 98 -101 222 -101 321 1 29 29 50 47 47 39 -17 -45 63 -89
116 -63 24 12 30 13 30 2 0 -22 27 -24 66 -5 46 24 69 13 52 -25 -17 -37 -4
-57 27 -45 31 12 65 13 49 2 -15 -9 -34 -47 -34 -66 0 -21 32 -29 65 -16 25
10 31 8 53 -17 14 -15 34 -38 45 -50 l20 -22 -83 -90 c-45 -50 -87 -88 -92
-85 -5 3 -22 0 -39 -6 -28 -12 -42 -39 -43 -81 -1 -10 -44 -64 -97 -120 -52
-57 -115 -126 -139 -152 l-44 -48 40 -40 40 -39 142 155 c111 121 148 155 168
155 35 0 78 45 70 74 -4 18 10 39 71 107 43 46 80 84 83 84 3 0 40 -38 83 -84
58 -65 75 -90 71 -106 -7 -30 24 -65 66 -74 29 -5 61 -35 175 -159 l139 -152
40 39 40 40 -95 103 c-51 57 -114 125 -139 151 -25 27 -45 56 -46 65 -1 43
-15 70 -43 82 -17 6 -34 9 -39 6 -5 -3 -46 35 -92 84 l-82 90 42 51 c31 36 47
48 59 43 54 -23 87 -10 77 29 -3 14 -13 33 -23 42 -15 16 -13 16 30 10 42 -7
47 -5 47 12 0 10 -5 24 -12 31 -9 10 -9 15 3 27 13 13 19 13 53 -4 40 -21 66
-18 66 6 0 12 -3 13 -14 4 -11 -10 -17 -8 -25 6 -6 11 -11 13 -11 5 0 -10 -4
-10 -16 2 -30 31 -70 14 -79 -33 -2 -14 0 -19 7 -15 7 4 8 3 4 -4 -4 -7 -18
-12 -30 -12 -31 0 -54 -26 -38 -42 15 -15 16 -31 1 -22 -8 4 -9 -1 -4 -17 3
-13 3 -19 -2 -14 -11 14 -60 18 -68 5 -5 -8 -12 -7 -23 2 -15 11 -15 11 -4 -4
11 -14 9 -20 -13 -43 -14 -16 -25 -32 -25 -36 0 -5 -6 -6 -14 -3 -8 3 -17 0
-22 -7 -4 -8 -3 -10 4 -5 11 7 16 -5 13 -31 -1 -6 4 -15 10 -19 8 -5 10 -2 5
7 -4 8 -1 5 6 -5 7 -11 26 -32 41 -48 15 -15 25 -28 21 -28 -3 0 12 -15 35
-34 22 -18 37 -37 33 -41 -4 -5 -1 -4 7 0 11 6 13 4 7 -11 -6 -15 -5 -17 5 -6
7 6 17 12 22 12 4 0 5 -6 1 -12 -5 -9 -2 -9 9 1 12 9 17 10 17 2 0 -7 5 -9 13
-5 7 5 6 0 -3 -11 -8 -10 -10 -16 -4 -12 7 4 15 0 18 -9 9 -24 7 -31 -4 -14
-5 8 -10 10 -10 4 0 -6 11 -24 24 -39 14 -16 23 -32 20 -37 -3 -4 3 -5 12 -1
14 5 16 3 10 -12 -4 -11 -4 -17 -1 -13 4 3 14 -2 23 -11 83 -88 86 -92 67 -85
-11 4 -17 4 -13 0 3 -4 13 -9 22 -10 24 -3 66 -47 67 -70 0 -12 3 -15 6 -8 2
6 9 9 14 6 6 -3 5 -11 -2 -20 -10 -12 -9 -13 4 -8 9 3 19 -2 26 -14 8 -16 5
-23 -21 -42 -17 -12 -28 -19 -25 -14 3 5 -6 23 -20 39 -14 17 -22 24 -19 18 4
-7 4 -13 1 -13 -3 0 -11 13 -16 30 -6 16 -14 28 -18 25 -4 -2 -23 11 -41 30
-19 19 -29 35 -24 35 6 0 15 -5 21 -11 10 -10 11 -1 4 29 -1 2 -9 -1 -18 -7
-13 -7 -22 -3 -40 17 -22 26 -22 48 0 36 7 -4 8 -3 4 2 -4 4 -18 9 -30 9 -13
0 -21 6 -19 13 1 8 -1 11 -6 8 -5 -3 -19 5 -33 17 -13 12 -33 23 -44 25 -39 6
-44 11 -40 42 3 20 0 28 -6 24 -7 -4 -6 2 1 16 7 13 7 20 2 16 -15 -9 -76 49
-67 65 5 8 4 10 -3 5 -7 -4 -12 -1 -12 6 -1 16 -83 78 -103 78 -8 0 -35 -19
-61 -43 -25 -24 -49 -41 -53 -38 -3 3 -3 0 1 -7 5 -8 -4 -24 -23 -41 -17 -16
-31 -24 -32 -18 0 7 -4 0 -9 -14 -4 -15 -6 -38 -5 -53 2 -18 -3 -30 -16 -36
-14 -8 -19 -7 -19 2 0 6 -6 3 -14 -7 -8 -11 -19 -16 -30 -12 -9 4 -15 3 -13
-1 6 -9 -18 -33 -27 -26 -3 2 -4 1 -1 -2 6 -9 -67 -90 -77 -87 -5 2 -8 -6 -8
-17 0 -11 -5 -20 -11 -20 -6 0 -9 7 -6 15 4 8 2 17 -2 19 -5 3 -7 -5 -7 -17 2
-26 -12 -49 -25 -41 -5 3 -16 -11 -24 -30 -9 -20 -18 -36 -21 -36 -3 0 -2 6 2
13 3 6 -5 -1 -19 -18 -14 -16 -23 -34 -20 -39 3 -5 -8 2 -26 15 -29 21 -45 49
-19 33 6 -4 8 -3 5 3 -8 13 27 46 38 36 4 -5 5 -2 1 5 -4 6 -2 12 4 12 6 0 9
4 6 8 -6 10 47 65 61 63 4 -1 8 3 8 8 0 14 83 99 91 93 4 -4 4 -1 0 6 -4 6 -1
19 8 27 19 19 30 19 22 -1 -3 -9 -2 -12 5 -9 6 4 8 12 6 19 -3 6 1 20 9 31 8
10 14 24 14 29 0 6 -5 4 -11 -4 -9 -12 -10 -12 -5 3 3 10 6 21 6 23 0 3 6 2
13 -2 7 -5 6 0 -3 11 -9 11 -10 16 -2 11 7 -4 12 -2 12 5 0 8 5 7 17 -2 11
-10 14 -10 9 -1 -9 16 6 16 23 0 10 -11 11 -9 5 6 -6 15 -4 17 6 11 7 -5 11
-4 8 1 -3 5 12 23 33 39 22 17 36 36 33 44 -4 12 -2 12 13 0 13 -11 15 -11 9
-1 -6 9 4 25 28 48 20 19 35 38 32 42 -3 5 0 14 6 22 8 12 8 11 3 -5 -5 -15
-3 -17 6 -8 9 9 8 17 -5 34 -15 22 -16 22 -17 4 0 -18 -1 -18 -11 3 -6 12 -15
22 -20 22 -4 0 -8 6 -8 13 -1 34 -82 59 -103 32 -4 -5 -5 4 -1 20 4 23 3 26
-5 15 -6 -8 -11 -10 -11 -5 0 6 5 16 12 23 16 16 -7 42 -38 42 -12 0 -26 5
-30 12 -4 7 -3 8 4 4 15 -9 6 34 -11 52 -16 15 -67 7 -67 -11 0 -7 -8 4 -19
23 -13 24 -16 40 -10 52 16 31 -2 69 -71 146 -66 72 -75 94 -44 106 9 3 12 1
9 -4 -7 -12 129 -157 155 -165 10 -3 29 -1 44 5 15 5 25 6 22 2 -2 -4 4 -8 14
-8 14 0 16 4 9 12 -7 9 -6 12 5 10 26 -4 29 -14 11 -42 -9 -15 -12 -23 -6 -20
14 9 14 0 0 -26 -10 -18 -8 -24 12 -39 22 -17 23 -18 3 -15 -12 3 -21 -1 -21
-9 0 -14 14 -14 37 0 8 5 23 10 32 10 16 2 17 -1 4 -19 -10 -16 -10 -24 -2
-32 14 -13 58 -25 51 -14 -3 4 2 11 10 14 23 8 30 -20 12 -48 -17 -25 -7 -46
22 -46 14 0 14 -2 1 -10 -9 -6 -20 -5 -30 3 -8 6 -6 2 4 -11 20 -23 32 -30 21
-12 -3 6 2 10 11 10 10 0 15 -3 12 -6 -3 -3 9 -22 28 -42 l34 -37 44 47 c24
26 41 50 37 55 -3 4 1 2 11 -5 12 -10 18 -10 24 -1 4 8 3 9 -4 5 -12 -7 -16 4
-12 37 1 10 -4 25 -11 33 -8 10 -9 18 -2 25 12 12 45 0 36 -14 -4 -7 0 -8 11
-4 10 4 21 7 26 7 14 0 20 31 10 51 -9 16 -8 19 9 16 10 -2 27 -9 38 -17 10
-8 15 -11 11 -6 -13 15 11 46 30 39 13 -4 13 -2 -3 10 -20 16 -20 16 4 12 13
-2 21 -2 17 2 -3 3 0 13 6 22 9 12 7 11 -8 -2 -17 -14 -23 -15 -31 -5 -6 7
-11 20 -11 28 -1 8 -2 23 -4 32 -2 9 2 17 7 16 6 0 9 -5 7 -11 -2 -8 1 -8 9 1
15 14 33 17 25 4 -3 -5 11 -9 32 -10 34 -1 44 6 119 82 62 63 85 81 93 71 7
-9 -9 -33 -60 -88 -74 -82 -89 -112 -70 -147 6 -12 9 -24 7 -26 -9 -9 48 -63
68 -65 59 -6 111 26 102 61 -3 10 18 -5 47 -34 41 -42 62 -55 104 -65 84 -21
150 -1 212 61 41 41 60 85 60 141 0 81 -11 109 -64 163 l-51 51 17 30 c58 99
12 249 -94 305 -63 33 -168 31 -223 -3 l-40 -26 -24 29 c-61 75 -187 96 -273
45 -66 -39 -101 -95 -106 -172 -2 -35 1 -79 7 -98 14 -40 85 -117 109 -117 13
-1 11 -4 -7 -14 -47 -26 -62 -79 -37 -128 13 -24 13 -28 0 -28 -20 0 -17 -29
6 -68 16 -26 18 -37 9 -48 -8 -10 -16 -11 -29 -4 -31 17 -50 12 -50 -13 0 -13
5 -28 12 -35 18 -18 5 -23 -29 -10 -43 16 -67 5 -60 -30 3 -15 8 -34 12 -43 4
-10 -9 -31 -35 -60 l-40 -44 -40 44 c-26 29 -39 50 -35 60 4 9 9 28 12 43 7
35 -17 46 -60 30 -34 -13 -47 -8 -29 10 7 7 12 22 12 35 0 25 -19 30 -50 13
-13 -7 -21 -6 -29 4 -9 11 -7 22 9 48 24 39 26 68 5 68 -14 0 -14 3 0 30 8 16
15 37 15 47 -1 28 -25 64 -51 79 -18 10 -20 13 -7 14 23 0 87 67 105 109 28
66 16 160 -28 222 -47 67 -165 103 -241 75z m87 -16 c-26 -11 -45 -12 -45 -2
0 4 15 8 33 9 26 1 28 0 12 -7z m744 -13 c7 -6 20 -12 28 -13 21 -3 84 -65 77
-76 -11 -17 9 -7 26 15 13 15 22 19 29 11 8 -7 6 -16 -7 -30 -17 -17 -17 -20
-3 -32 9 -8 11 -11 4 -8 -6 4 -14 2 -18 -4 -3 -5 0 -10 8 -10 8 0 20 -14 26
-31 13 -39 14 -72 2 -64 -5 3 -15 -1 -23 -8 -7 -8 -19 -12 -26 -9 -7 2 -11 -2
-10 -10 2 -7 -3 -12 -9 -10 -13 2 -17 -10 -14 -35 1 -7 -3 -13 -9 -13 -6 0 -8
5 -5 10 3 6 1 10 -4 10 -6 0 -11 -6 -11 -14 0 -8 -4 -17 -9 -20 -19 -12 -4 22
26 59 18 21 30 41 28 45 -2 3 1 12 6 20 8 12 9 11 7 -4 -2 -10 2 -21 9 -23 13
-5 29 59 18 76 -10 17 -25 13 -19 -4 4 -8 1 -15 -6 -15 -9 0 -11 11 -7 36 3
20 3 34 0 30 -7 -6 -48 54 -45 66 1 4 -7 12 -18 18 -11 6 -20 8 -20 4 0 -4 -8
-1 -17 7 -34 27 -62 39 -80 33 -15 -5 -16 -4 -3 5 16 11 46 6 69 -12z m-805 4
c6 -10 -40 -26 -63 -22 -9 2 -12 -3 -7 -14 3 -9 2 -14 -3 -10 -11 6 -61 -51
-61 -71 0 -9 -4 -13 -9 -9 -6 3 -7 -9 -4 -30 4 -24 2 -35 -6 -35 -7 0 -10 8
-6 19 3 10 -1 24 -10 31 -8 7 -12 16 -10 21 3 4 -3 17 -14 28 -16 16 -17 20
-5 25 10 4 12 2 8 -6 -5 -7 -2 -9 8 -5 9 3 20 1 25 -4 6 -6 27 8 56 37 26 25
51 43 56 40 5 -4 12 -2 16 4 8 12 22 13 29 1z m150 -23 c25 -26 19 -31 -11
-10 -16 10 -35 22 -43 25 -8 3 -3 5 11 4 14 -2 33 -10 43 -19z m506 2 c-25
-12 -52 -30 -61 -42 -10 -12 -19 -17 -22 -10 -4 5 6 18 21 27 15 10 30 23 34
29 4 7 22 13 40 14 33 2 33 2 -12 -18z m-550 -22 c61 -31 90 -77 90 -143 0
-168 -226 -222 -299 -71 -25 51 -26 82 -5 136 17 42 56 76 102 90 44 14 65 11
112 -12z m716 -9 c36 -22 74 -90 74 -134 0 -16 -9 -48 -21 -71 -73 -151 -299
-97 -299 71 0 66 29 112 90 143 52 27 103 24 156 -9z m-1151 -13 c-10 -14 -21
-24 -25 -21 -13 8 -19 -34 -9 -70 7 -24 14 -32 24 -28 11 4 13 1 8 -13 -4 -12
-3 -15 5 -10 8 5 10 1 5 -10 -4 -11 -8 -13 -11 -6 -2 7 -9 9 -14 6 -7 -5 -8
-2 -3 6 6 10 4 12 -8 7 -11 -4 -14 -2 -11 7 7 18 -10 28 -52 29 -19 1 -34 4
-34 8 0 5 20 25 45 46 25 20 45 41 45 46 0 4 -4 5 -10 2 -5 -3 -10 -2 -10 3 0
8 61 32 68 26 2 -1 -4 -14 -13 -28z m64 22 c-10 -7 -5 -8 16 -4 24 5 26 4 13
-4 -17 -10 -68 -4 -68 9 0 3 12 7 27 8 20 1 23 -1 12 -9z m1381 2 c0 -6 4 -9
9 -5 5 3 15 -1 23 -8 7 -8 19 -12 26 -9 6 2 15 -3 18 -12 3 -9 11 -13 18 -9 6
3 8 3 4 -1 -3 -4 7 -20 23 -35 16 -15 26 -31 22 -34 -3 -4 -1 -13 5 -20 7 -8
9 -17 5 -20 -3 -4 -1 -13 6 -20 8 -10 8 -21 1 -38 -10 -22 -10 -23 -6 -2 2 14
-5 31 -21 47 -13 14 -20 27 -14 30 5 4 8 16 6 27 -5 24 -63 81 -75 74 -5 -3
-12 0 -15 5 -5 7 -11 6 -19 -5 -11 -15 -13 -14 -25 8 -11 22 -17 24 -43 17
-17 -5 -38 -5 -51 1 -19 8 -18 9 6 4 16 -3 26 -2 24 2 -3 4 13 9 34 11 23 1
39 -2 39 -8z m-916 -31 c-3 -5 0 -9 7 -9 7 0 9 -3 6 -6 -9 -10 -37 16 -37 33
0 13 3 13 15 3 8 -7 12 -16 9 -21z m801 3 c-3 -3 -11 0 -18 7 -9 10 -8 11 6 5
10 -3 15 -9 12 -12z m-1418 -25 c-12 -13 -25 -22 -29 -20 -4 2 -11 -5 -17 -14
-6 -10 -11 -13 -11 -7 0 5 7 19 15 30 8 10 15 15 15 9 0 -5 7 1 16 13 8 12 19
20 24 17 5 -3 -1 -16 -13 -28z m183 7 c22 -9 40 -18 40 -20 0 -1 -11 -15 -25
-30 -25 -27 -41 -83 -31 -109 3 -8 0 -15 -6 -15 -6 0 -8 -3 -5 -6 4 -4 -5 -20
-18 -36 -14 -16 -25 -39 -25 -50 0 -14 -5 -18 -16 -14 -9 3 -32 6 -52 6 -35 1
-36 2 -18 15 11 8 34 15 51 15 37 0 73 48 52 69 -9 10 -8 11 6 6 22 -9 22 0
-2 33 -26 38 -44 99 -37 128 8 29 29 31 86 8z m1326 -8 c7 -29 -11 -90 -38
-129 -11 -16 -18 -30 -16 -33 9 -9 38 8 38 22 0 8 5 14 11 14 5 0 7 6 3 13 -5
9 -4 9 6 0 11 -11 8 -18 -17 -41 -26 -23 -30 -31 -21 -47 11 -20 11 -20 -10
-1 -12 10 -19 23 -16 27 3 5 1 9 -4 9 -5 0 -7 13 -4 29 4 30 -31 111 -48 111
-23 0 -7 19 28 33 56 24 81 21 88 -7z m107 -35 c28 -26 36 -44 15 -36 -19 7
-71 -9 -76 -23 -2 -8 3 -10 15 -6 14 5 15 4 3 -4 -8 -6 -17 -9 -21 -6 -4 2 -9
-2 -11 -8 -3 -8 -10 -4 -17 11 -12 21 -11 23 2 18 19 -7 39 49 29 85 -5 21 -4
22 14 9 10 -8 31 -26 47 -40z m-645 -16 c0 -19 -4 -35 -8 -35 -7 0 -8 20 -1
63 3 21 9 3 9 -28z m-321 3 c-2 -7 0 -26 4 -42 5 -17 5 -25 0 -20 -12 13 -22
60 -14 68 10 10 15 7 10 -6z m-702 -18 c-3 -5 -1 -12 5 -15 7 -4 2 -16 -13
-31 -16 -16 -23 -33 -21 -47 4 -20 4 -21 -5 -2 -5 11 -5 27 0 37 12 22 11 31
-1 23 -6 -3 -7 1 -4 9 3 9 11 16 16 16 6 0 8 7 5 14 -4 10 -1 13 8 9 8 -3 13
-9 10 -13z m295 -5 c-17 -20 -4 -89 15 -81 17 6 39 -19 29 -35 -4 -7 -3 -9 4
-6 5 4 21 -6 35 -22 14 -17 28 -27 32 -23 5 4 5 2 2 -4 -4 -7 4 -14 19 -18 15
-4 24 -10 21 -13 -9 -8 -67 17 -67 29 0 6 -7 8 -15 4 -10 -3 -21 6 -32 27 -9
18 -16 36 -15 40 1 5 -2 6 -8 2 -6 -3 -17 1 -26 9 -9 9 -20 14 -25 11 -12 -8
-11 25 2 64 6 17 18 31 26 31 13 0 13 -3 3 -15z m725 -55 c8 -16 14 -31 13
-32 -7 -8 37 -66 46 -61 6 3 8 3 4 -2 -8 -8 16 -36 29 -33 4 1 27 -4 50 -12
31 -9 40 -16 33 -25 -15 -18 0 -26 39 -19 43 8 69 20 98 46 l22 20 -7 -24
c-10 -37 -138 -175 -169 -183 -37 -9 -79 12 -93 46 -10 24 -10 33 4 54 29 44
96 24 81 -25 -9 -28 -34 -25 -46 7 -7 19 -13 23 -21 15 -18 -18 0 -61 29 -68
52 -13 92 39 67 89 -10 17 -21 27 -29 23 -8 -3 -17 -1 -20 5 -4 5 -11 7 -16 4
-5 -4 -9 -1 -9 5 0 5 -19 30 -42 53 -57 57 -78 86 -72 102 3 7 1 16 -5 20 -6
3 -11 10 -11 16 0 17 9 9 25 -21z m-932 -4 c18 -8 46 -26 62 -40 l30 -25 -38
-1 c-42 0 -107 -26 -107 -42 0 -6 7 -7 16 -4 14 5 15 4 5 -8 -10 -12 -9 -16 6
-24 10 -5 24 -7 32 -4 12 4 12 2 1 -9 -7 -8 -29 -14 -48 -14 -27 1 -42 -6 -64
-28 -35 -37 -37 -27 -3 18 24 30 24 34 10 49 -12 12 -13 16 -3 16 10 0 9 3 -2
10 -8 5 -10 10 -4 10 15 0 46 -35 37 -43 -3 -4 -1 -7 5 -7 17 0 15 10 -8 55
-11 22 -20 54 -20 72 0 30 3 33 30 33 17 0 45 -6 63 -14z m237 4 c0 -5 -4 -10
-10 -10 -5 0 -10 5 -10 10 0 6 5 10 10 10 6 0 10 -4 10 -10z m1390 -23 c0 -18
-9 -49 -19 -70 -18 -36 -18 -37 0 -37 10 0 18 3 17 8 -4 13 13 52 23 52 14 0
11 -17 -7 -34 -9 -10 -11 -16 -4 -16 7 0 5 -7 -5 -16 -17 -17 -17 -16 24 -66
8 -9 19 -14 25 -11 6 3 8 3 4 -1 -8 -10 14 -36 24 -29 4 2 5 -4 1 -13 -5 -13
-3 -15 7 -9 9 5 11 4 6 -3 -4 -6 -2 -21 4 -33 9 -16 9 -24 -1 -33 -9 -8 -10
-8 -5 1 10 18 -21 73 -62 111 -40 36 -99 71 -87 52 9 -14 -27 -10 -37 5 -5 7
-11 6 -15 -1 -9 -12 -62 -29 -78 -25 -5 2 -7 -1 -3 -4 9 -9 -35 -45 -55 -45
-8 0 -17 6 -20 13 -5 13 5 17 45 18 10 0 17 3 17 7 -3 20 2 32 11 27 6 -4 7 1
3 11 -5 14 -3 15 16 4 13 -6 30 -8 39 -5 23 10 62 17 92 17 l25 0 -27 14 c-30
16 -38 27 -13 18 8 -4 15 -2 15 4 0 16 -65 42 -107 42 l-38 1 30 25 c40 34 83
53 123 54 30 0 32 -2 32 -33z m-1016 7 c3 -8 2 -12 -3 -9 -6 3 -14 -3 -20 -12
-6 -10 -11 -15 -11 -10 0 6 22 47 26 47 1 0 5 -7 8 -16z m-385 -70 c26 -33 26
-55 4 -82 -30 -34 -85 -33 -109 3 -46 71 53 145 105 79z m361 16 c0 -5 -5 -10
-11 -10 -5 0 -8 -4 -4 -9 7 -12 -12 -24 -25 -16 -5 3 -2 14 8 25 19 21 32 25
32 10z m813 -2 c27 -21 32 -70 9 -97 -21 -27 -76 -32 -98 -9 -57 59 23 154 89
106z m-1503 -8 c0 -5 -4 -10 -10 -10 -5 0 -10 5 -10 10 0 6 5 10 10 10 6 0 10
-4 10 -10z m623 -57 c-13 -9 -23 -23 -24 -32 0 -9 -3 -11 -5 -4 -3 7 -12 9
-20 6 -7 -3 -11 -9 -8 -14 3 -5 0 -9 -6 -9 -6 0 -13 7 -16 15 -4 10 -13 13
-24 10 -10 -3 -20 0 -23 9 -4 10 -1 13 7 10 8 -3 34 0 57 7 24 7 50 12 57 10
6 -1 12 4 12 10 0 7 3 9 8 5 4 -5 -3 -15 -15 -23z m694 12 c0 -15 -26 -30 -35
-20 -4 4 22 30 34 35 0 0 1 -7 1 -15z m336 -4 c8 -8 1 -11 -25 -11 -20 0 -43
-3 -52 -6 -12 -4 -16 0 -16 16 0 21 4 22 41 17 23 -3 46 -10 52 -16z m-1229
-31 c19 -12 53 -22 75 -23 23 -1 41 -3 41 -4 0 -2 -7 -14 -15 -26 -27 -41 18
-96 68 -83 29 7 47 50 29 68 -8 8 -14 4 -22 -16 -11 -31 -42 -33 -48 -3 -9 47
56 64 84 22 33 -50 -25 -116 -89 -100 -38 10 -193 185 -163 185 3 0 20 -9 40
-20z m846 16 c0 -2 -9 -6 -20 -9 -11 -3 -18 -1 -14 4 5 9 34 13 34 5z m-1060
-37 c5 -7 7 -16 4 -20 -2 -4 4 -8 13 -8 40 -1 51 -5 47 -16 -3 -7 4 -11 17
-11 14 1 44 -24 92 -77 59 -65 70 -83 70 -112 0 -49 -28 -77 -72 -73 -41 4
-67 39 -50 70 12 22 57 24 66 3 7 -19 1 -26 -23 -29 -27 -4 -28 -23 -3 -31 17
-6 27 -2 41 15 24 29 23 55 -3 81 -20 20 -41 21 -80 5 -13 -6 -15 -1 -11 24 6
40 -26 126 -41 111 -6 -6 -16 -11 -21 -11 -6 0 -4 5 4 10 13 8 12 10 -3 10
-27 0 -64 32 -61 53 1 9 -2 15 -7 11 -5 -3 -7 -9 -5 -13 3 -4 -10 -3 -29 3
-18 6 -32 13 -30 16 7 11 77 2 85 -11z m-34 -35 c42 -20 84 -88 84 -135 -1
-110 -106 -191 -207 -159 -72 23 -113 79 -113 155 0 75 35 125 107 151 42 15
78 12 129 -12z m1549 -3 c90 -51 102 -186 23 -257 -76 -69 -201 -46 -248 45
-50 99 3 206 115 234 29 7 75 -2 110 -22z m-1765 -16 c0 -5 -48 -77 -57 -85
-3 -3 0 5 6 18 7 12 9 28 5 34 -5 7 -3 8 6 3 10 -6 12 -4 7 9 -4 10 -3 15 3
11 6 -3 10 -1 10 4 0 6 5 11 10 11 6 0 10 -2 10 -5z m1479 -40 c-23 -52 -22
-110 1 -110 22 0 31 -17 17 -34 -9 -12 -9 -13 0 -8 8 5 15 -1 19 -18 3 -13 10
-23 14 -20 8 5 25 -24 21 -39 -1 -5 5 -6 14 -2 9 3 18 -1 21 -9 4 -8 10 -13
14 -10 4 3 22 -1 38 -8 33 -14 115 -11 106 4 -3 5 3 6 12 2 12 -4 15 -3 10 5
-4 7 -3 12 3 12 24 0 18 -19 -10 -30 -41 -17 -77 -18 -118 -3 -18 7 -37 10
-42 7 -5 -3 -12 1 -15 10 -3 8 -11 13 -18 10 -14 -5 -96 87 -96 109 0 14 -40
37 -65 37 -23 0 -55 -37 -55 -63 0 -32 33 -61 60 -52 25 8 22 27 -4 31 -26 4
-32 13 -19 32 20 32 79 0 66 -36 -11 -32 -26 -42 -58 -42 -48 0 -85 52 -68 98
11 30 142 172 158 172 11 0 9 -10 -6 -45z m36 -3 c-6 -4 -11 -21 -10 -38 0
-17 -5 -31 -12 -31 -6 0 -9 11 -7 26 7 41 12 51 26 51 8 0 9 -3 3 -8z m367
-97 c-2 -19 -8 -35 -13 -35 -5 0 -8 -3 -7 -7 3 -15 -20 -59 -38 -73 -18 -14
-18 -14 -1 6 9 11 17 25 17 30 0 5 7 22 15 38 9 16 13 36 10 45 -4 11 6 26 20
31 1 0 -1 -16 -3 -35z m-1929 -1 c-3 -8 2 -23 11 -33 11 -12 13 -21 7 -25 -5
-4 -15 2 -20 13 -14 25 -14 74 -1 66 5 -3 7 -12 3 -21z m397 -38 c0 -16 -94
-116 -109 -116 -7 0 -11 6 -8 13 2 6 12 11 21 9 9 -2 16 1 15 5 -4 15 13 43
22 38 5 -3 11 6 15 20 4 15 11 22 18 18 8 -4 8 -2 -1 7 -17 18 -5 44 13 29 8
-6 14 -17 14 -23z m-319 -100 c4 -5 12 -5 18 -2 6 4 14 0 17 -8 3 -9 14 -16
23 -17 9 0 11 -3 4 -5 -19 -8 -113 51 -113 72 0 7 39 -23 51 -40z m495 -3 c-7
-17 -8 -17 -21 0 -8 11 -11 26 -8 34 5 13 8 13 21 0 9 -10 12 -23 8 -34z
m-306 -13 c0 -5 -4 -10 -10 -10 -5 0 -10 5 -10 10 0 6 5 10 10 10 6 0 10 -4
10 -10z m-40 -9 c0 -13 -33 -19 -55 -9 -19 8 -19 8 1 4 12 -2 28 0 35 5 18 11
19 11 19 0z m748 -150 c16 12 16 12 0 -6 -18 -19 -18 -19 -35 0 -17 18 -17 18
0 6 14 -11 20 -11 35 0z m-467 -624 c-10 -9 -11 -8 -5 6 3 10 9 15 12 12 3 -3
0 -11 -7 -18z"/>
<path d="M2733 3425 c0 -8 4 -12 9 -9 5 3 6 10 3 15 -9 13 -12 11 -12 -6z"/>
<path d="M3625 3240 c-3 -5 -1 -10 4 -10 6 0 11 5 11 10 0 6 -2 10 -4 10 -3 0
-8 -4 -11 -10z"/>
<path d="M2360 3240 c0 -5 5 -10 11 -10 5 0 7 5 4 10 -3 6 -8 10 -11 10 -2 0
-4 -4 -4 -10z"/>
<path d="M2136 3018 c3 -5 10 -6 15 -3 13 9 11 12 -6 12 -8 0 -12 -4 -9 -9z"/>
<path d="M2677 3080 c-42 -33 -70 -77 -55 -86 7 -4 10 -4 7 0 -4 4 9 23 29 42
32 31 38 33 48 20 6 -9 15 -16 19 -16 5 0 0 9 -9 19 -10 11 -15 25 -11 30 10
16 1 13 -28 -9z"/>
<path d="M3290 3086 c0 -8 20 -30 45 -49 24 -19 41 -38 37 -42 -4 -5 -1 -5 6
-1 16 9 -15 56 -58 86 -24 17 -30 18 -30 6z"/>
<path d="M3243 2975 c0 -8 4 -12 9 -9 5 3 6 10 3 15 -9 13 -12 11 -12 -6z"/>
<path d="M3395 2959 c-4 -6 -5 -12 -2 -15 2 -3 7 2 10 11 7 17 1 20 -8 4z"/>
<path d="M3095 2920 c3 -5 8 -10 11 -10 2 0 4 5 4 10 0 6 -5 10 -11 10 -5 0
-7 -4 -4 -10z"/>
<path d="M2465 2901 c-3 -5 -2 -12 3 -15 5 -3 9 1 9 9 0 17 -3 19 -12 6z"/>
<path d="M3523 2895 c0 -8 4 -12 9 -9 5 3 6 10 3 15 -9 13 -12 11 -12 -6z"/>
<path d="M3310 2546 c0 -2 7 -7 16 -10 8 -3 12 -2 9 4 -6 10 -25 14 -25 6z"/>
<path d="M2415 2490 l-29 -30 24 -25 24 -25 -39 -40 -38 -39 -22 25 -21 24
-31 -35 c-25 -28 -28 -36 -17 -46 16 -13 37 -2 30 16 -2 7 4 15 15 18 22 6 51
-20 55 -48 2 -15 1 -15 -16 0 -14 12 -20 13 -26 4 -4 -7 -3 -10 4 -5 6 3 16
-3 22 -15 7 -11 14 -18 18 -15 3 4 18 -6 33 -20 l28 -27 24 29 25 29 -34 30
c-31 28 -33 32 -19 49 15 19 16 19 50 -14 l34 -33 28 27 27 27 -29 23 c-26 21
-28 26 -15 40 12 15 8 22 -31 62 l-45 45 -29 -31z m66 -42 c9 -10 20 -14 24
-10 5 4 4 0 -1 -8 -4 -8 -8 -24 -9 -35 0 -13 -6 -20 -17 -19 -10 1 -15 -3 -12
-8 3 -5 -3 -4 -14 3 -17 11 -18 15 -6 38 16 29 19 54 4 31 -12 -19 -33 0 -25
23 8 18 32 12 56 -15z m29 -89 c0 -5 5 -7 10 -4 6 3 10 4 10 1 0 -3 -9 -10
-20 -16 -16 -9 -19 -8 -13 6 5 13 3 15 -7 9 -9 -5 -11 -4 -6 3 9 15 26 16 26
1z m-93 -61 c7 -6 10 -14 7 -19 -3 -5 0 -9 6 -9 6 0 8 -5 4 -11 -5 -8 -10 -7
-16 4 -5 9 -14 14 -21 12 -6 -3 -17 6 -24 20 -11 24 -10 25 10 19 12 -3 28
-11 34 -16z"/>
<path d="M2466 2414 c-3 -8 -2 -13 3 -9 5 3 11 -1 14 -7 3 -7 4 -3 4 10 -1 25
-12 29 -21 6z"/>
<path d="M3510 2475 c-38 -39 -42 -46 -29 -61 12 -14 10 -19 -15 -39 l-29 -23
26 -28 27 -28 35 34 c34 33 35 33 50 14 14 -17 12 -21 -19 -49 l-34 -30 25
-29 24 -29 30 29 c16 15 29 24 29 19 0 -5 5 -4 12 3 8 8 8 15 0 25 -18 22 -1
29 22 10 21 -18 21 -18 2 5 -11 12 -17 22 -15 23 70 14 74 5 22 -46 -53 -51
-33 -55 27 -5 l51 43 -32 34 -33 33 -21 -25 -22 -24 -38 39 -39 40 22 20 c28
26 28 31 -6 63 l-28 27 -44 -45z m57 -5 c-3 -11 0 -20 6 -20 7 0 3 -7 -8 -16
-16 -12 -17 -18 -8 -32 15 -25 -14 -45 -43 -29 -18 10 -18 9 -4 -8 12 -15 12
-17 1 -10 -11 6 -13 4 -8 -9 6 -14 3 -15 -14 -5 -18 9 -19 13 -6 27 19 23 27
48 19 58 -4 5 -6 8 -4 7 4 -2 38 25 56 44 16 17 19 16 13 -7z m61 -172 c-14
-24 -35 -41 -56 -44 -7 -1 -9 3 -5 9 4 7 8 15 8 19 0 3 4 10 9 15 5 5 6 2 1
-7 -4 -8 2 -5 14 8 12 12 26 22 31 22 6 0 5 -10 -2 -22z"/>
<path d="M3513 2410 c-2 -19 8 -26 20 -14 7 7 -2 34 -12 34 -4 0 -7 -9 -8 -20z"/>
<path d="M2320 2416 c0 -2 8 -10 18 -17 15 -13 16 -12 3 4 -13 16 -21 21 -21
13z"/>
<path d="M2573 2385 c0 -8 4 -12 9 -9 5 3 6 10 3 15 -9 13 -12 11 -12 -6z"/>
<path d="M3415 2391 c-3 -5 -2 -12 3 -15 5 -3 9 1 9 9 0 17 -3 19 -12 6z"/>
<path d="M3720 2396 c0 -2 8 -10 18 -17 15 -13 16 -12 3 4 -13 16 -21 21 -21
13z"/>
<path d="M2294 2289 c-5 -9 44 -58 59 -59 15 0 6 16 -23 42 -16 14 -32 22 -36
17z"/>
<path d="M2960 2280 c-25 -25 -26 -52 -1 -74 19 -17 19 -18 -5 -79 -13 -33
-24 -64 -24 -69 0 -4 32 -8 70 -8 39 0 70 4 70 8 0 5 -11 36 -24 69 -24 61
-24 62 -5 79 10 9 19 25 19 36 0 24 -35 58 -60 58 -11 0 -29 -9 -40 -20z m63
-24 c15 -22 15 -25 1 -37 -16 -13 -15 -22 2 -106 3 -18 2 -34 -2 -34 -54 -8
-56 -7 -50 25 18 98 18 102 2 115 -14 12 -14 15 1 37 8 13 19 24 23 24 4 0 15
-11 23 -24z"/>
<path d="M2990 2240 c0 -5 5 -10 10 -10 6 0 10 5 10 10 0 6 -4 10 -10 10 -5 0
-10 -4 -10 -10z"/>
<path d="M3470 2216 c0 -4 7 -14 15 -22 8 -9 15 -11 15 -6 0 5 -7 15 -15 22
-8 7 -15 9 -15 6z"/>
<path d="M2510 2200 c-8 -5 -12 -12 -9 -15 4 -3 12 1 19 10 14 17 11 19 -10 5z"/>
<path d="M3475 2166 c10 -14 19 -26 22 -26 7 0 -17 39 -28 46 -6 3 -3 -5 6
-20z"/>
<path d="M3531 2106 c-9 -11 -9 -16 1 -22 7 -4 10 -4 6 1 -4 4 -3 14 3 22 6 7
9 13 6 13 -2 0 -10 -6 -16 -14z"/>
<path d="M2400 2036 c0 -2 8 -10 18 -17 15 -13 16 -12 3 4 -13 16 -21 21 -21
13z"/>
<path d="M194 1642 c-28 -75 -55 -145 -59 -154 -6 -16 -1 -18 49 -18 49 0 56
2 56 20 0 18 7 20 69 20 60 0 71 -3 76 -19 4 -15 17 -20 55 -23 28 -1 50 1 50
5 0 7 -72 206 -105 290 -6 14 -20 17 -74 17 l-66 0 -51 -138z m121 108 c-3 -5
-1 -10 4 -10 6 0 11 6 12 13 0 6 4 3 9 -8 5 -11 9 -14 9 -6 2 24 29 -8 36 -42
4 -18 15 -41 24 -51 9 -11 10 -16 4 -12 -7 4 -13 2 -13 -3 0 -6 4 -11 9 -11 8
0 24 -37 22 -52 0 -4 6 -23 14 -42 15 -34 14 -36 -5 -36 -11 0 -29 9 -40 20
-28 28 -157 33 -187 9 -11 -10 -17 -9 -30 4 -14 14 -14 17 1 32 16 17 20 29
17 54 -2 7 2 10 7 7 6 -3 13 12 17 34 4 22 11 40 16 40 6 0 7 4 4 10 -11 17
14 49 42 53 16 2 29 5 31 6 2 0 0 -3 -3 -9z m-125 -251 c0 -5 -4 -9 -10 -9 -5
0 -10 7 -10 16 0 8 5 12 10 9 6 -3 10 -10 10 -16z m34 6 c-4 -8 -11 -15 -16
-15 -6 0 -5 6 2 15 7 8 14 15 16 15 2 0 1 -7 -2 -15z"/>
<path d="M282 1674 c-13 -9 -21 -22 -18 -30 3 -8 2 -14 -2 -14 -15 0 -7 -47
11 -65 13 -13 21 -15 29 -7 8 8 15 8 24 1 9 -7 17 -4 28 13 9 12 16 18 16 13
0 -6 5 -2 11 8 6 10 8 21 5 24 -3 4 -6 1 -6 -5 0 -7 -4 -12 -10 -12 -5 0 -7 7
-4 15 4 8 2 15 -2 15 -5 0 -15 14 -22 30 -15 34 -28 37 -60 14z m62 -71 c7
-22 4 -23 -39 -23 -42 0 -45 1 -31 16 9 8 16 19 16 24 0 5 5 21 11 37 l11 28
13 -30 c7 -16 16 -40 19 -52z"/>
<path d="M520 1673 c0 -89 3 -114 20 -140 51 -84 198 -94 268 -19 l32 36 0
115 0 116 -47 -3 -46 -3 2 -86 c1 -50 -3 -97 -10 -112 -15 -34 -61 -45 -94
-23 -24 16 -25 21 -25 121 l0 105 -50 0 -50 0 0 -107z m71 -5 c1 -46 0 -90 -1
-98 -1 -8 2 -12 6 -7 4 4 16 -5 26 -20 10 -16 18 -25 18 -22 0 4 16 3 35 -1
25 -6 38 -4 46 6 7 8 14 12 17 9 3 -3 11 0 19 6 9 8 13 40 13 110 0 97 1 99
23 99 22 0 23 -3 25 -82 1 -47 -3 -87 -9 -95 -8 -9 -8 -13 -1 -13 6 0 9 -7 5
-15 -3 -9 -8 -14 -10 -11 -3 2 -14 -5 -24 -15 -22 -22 -46 -20 -41 2 2 8 0 10
-5 6 -4 -5 -8 -16 -8 -25 0 -19 -38 -19 -107 -1 -36 9 -72 44 -62 60 2 4 1 10
-3 12 -5 3 -7 44 -5 91 3 77 5 86 23 86 17 0 19 -8 20 -82z"/>
<path d="M590 1531 c0 -6 4 -13 10 -16 6 -3 7 1 4 9 -7 18 -14 21 -14 7z"/>
<path d="M910 1623 l0 -158 48 3 49 4 -5 49 -5 49 34 0 c30 0 38 -6 64 -50 30
-50 30 -50 83 -50 l54 0 -36 51 -37 50 26 30 c16 20 25 43 25 64 0 88 -48 115
-200 115 l-100 0 0 -157z m193 123 c-3 -4 3 -5 14 -2 15 5 25 0 37 -19 9 -14
21 -23 25 -20 7 4 8 -27 2 -76 -1 -3 -12 -11 -25 -17 -27 -12 -28 -30 -6 -58
13 -16 13 -17 -1 -12 -9 4 -16 1 -16 -7 0 -7 7 -10 16 -8 9 2 22 -5 29 -17 11
-18 10 -20 -10 -19 -15 0 -36 16 -58 44 -19 24 -40 44 -46 44 -7 1 -14 8 -18
16 -5 14 9 19 66 19 9 0 15 4 12 8 -4 5 2 15 12 23 11 7 16 17 12 21 -4 4 -3
13 4 21 9 11 8 13 -3 11 -9 -2 -13 4 -12 17 1 11 0 14 -3 8 -3 -7 -13 -13 -22
-13 -15 0 -15 2 -2 10 20 13 8 13 -25 0 -23 -9 -26 -8 -22 4 4 10 1 13 -9 9
-7 -3 -14 -10 -14 -17 0 -7 -3 -7 -8 -1 -4 6 -14 12 -22 13 -8 2 -12 1 -8 -3
4 -4 1 -14 -7 -22 -20 -20 -19 -46 3 -71 13 -15 22 -18 29 -11 7 7 11 3 11
-15 0 -22 -3 -24 -20 -15 -13 7 -18 7 -14 1 3 -5 -1 -12 -9 -16 -10 -3 -15
-19 -15 -45 0 -30 -4 -40 -19 -44 -14 -3 -21 2 -25 17 -7 24 -8 241 -2 247 8
8 174 4 169 -5z m72 -16 c3 -5 1 -10 -4 -10 -6 0 -11 5 -11 10 0 6 2 10 4 10
3 0 8 -4 11 -10z m-51 -46 c11 -29 -13 -44 -70 -44 -53 0 -54 0 -54 30 0 30 0
30 59 30 45 0 60 -4 65 -16z m41 -84 c-3 -5 -12 -10 -18 -10 -7 0 -6 4 3 10
19 12 23 12 15 0z"/>
<path d="M1090 1566 c0 -2 7 -7 16 -10 8 -3 12 -2 9 4 -6 10 -25 14 -25 6z"/>
<path d="M952 1540 c0 -14 2 -19 5 -12 2 6 2 18 0 25 -3 6 -5 1 -5 -13z"/>
<path d="M1280 1625 l0 -155 135 0 135 0 0 41 0 40 -85 -3 c-82 -3 -85 -2 -85
20 0 21 4 22 75 22 l75 0 0 30 0 30 -79 0 -78 0 5 26 c5 25 5 25 88 22 l84 -3
0 43 0 42 -135 0 -135 0 0 -155z m84 123 c-5 -7 -3 -8 5 -4 21 13 114 14 144
1 24 -10 26 -13 12 -19 -27 -10 -144 -6 -120 4 14 6 16 9 4 9 -17 1 -59 -50
-59 -71 0 -19 33 -45 49 -40 8 3 11 0 7 -7 -4 -6 -12 -11 -17 -11 -15 0 -39
-26 -39 -43 0 -8 7 -21 17 -28 16 -14 32 -16 120 -18 33 -1 41 -4 37 -16 -5
-12 -27 -15 -113 -15 -72 0 -101 3 -91 10 13 8 12 10 -2 10 -15 0 -18 9 -18
53 0 89 12 189 21 175 6 -9 9 -9 9 -1 0 6 8 14 18 16 9 3 18 5 20 6 2 0 0 -4
-4 -11z m136 -126 c0 -5 -18 -9 -40 -8 -22 0 -40 3 -40 6 0 4 18 7 40 8 22 2
40 -1 40 -6z"/>
<path d="M1700 1769 c-123 -49 -135 -216 -21 -283 73 -42 201 -16 241 49 27
44 27 128 0 173 -36 59 -148 90 -220 61z m114 -21 c-3 -4 2 -5 11 -2 19 8 47
-14 38 -29 -4 -7 0 -8 12 -3 16 6 16 4 4 -10 -13 -16 -12 -16 7 -6 16 9 21 8
21 -3 0 -8 -5 -12 -11 -9 -6 3 -3 -1 6 -9 13 -10 16 -25 14 -58 -4 -58 -15
-91 -27 -84 -5 4 -9 1 -9 -5 0 -34 -134 -55 -182 -29 -13 7 -27 12 -31 11 -5
-1 -6 2 -3 7 4 5 0 15 -7 23 -21 21 -42 62 -27 53 9 -6 9 -2 0 14 -17 32 14
121 42 121 5 0 6 -5 2 -12 -4 -7 -3 -8 5 -4 6 4 9 11 6 16 -3 4 6 12 20 17 32
10 115 11 109 1z"/>
<path d="M1738 1722 c-20 -2 -32 -14 -48 -47 -25 -52 -22 -86 10 -120 20 -21
21 -25 6 -19 -13 5 -17 4 -12 -4 3 -6 19 -10 34 -10 15 0 32 -1 37 -3 15 -5
79 10 72 17 -3 4 -1 12 6 20 38 43 38 43 26 86 -7 24 -11 48 -10 53 1 5 -1 7
-5 3 -4 -4 -13 -3 -20 3 -18 14 -65 25 -96 21z m89 -48 c21 -21 24 -32 20 -61
-8 -44 -21 -60 -57 -68 -60 -13 -92 16 -92 83 0 69 78 97 129 46z"/>
<path d="M1865 1570 c-3 -5 -1 -10 4 -10 6 0 11 5 11 10 0 6 -2 10 -4 10 -3 0
-8 -4 -11 -10z"/>
<path d="M1738 1503 c7 -3 16 -2 19 1 4 3 -2 6 -13 5 -11 0 -14 -3 -6 -6z"/>
<path d="M2000 1625 l0 -155 51 0 50 0 -3 95 c-3 108 -7 109 70 -17 l47 -77
63 -1 62 0 0 155 0 155 -50 0 -50 0 0 -57 c0 -32 3 -83 7 -113 9 -74 21 -39
22 63 1 75 2 77 25 77 24 0 25 -2 24 -75 0 -41 -4 -78 -9 -81 -5 -3 -9 -15 -8
-27 1 -21 2 -20 9 3 6 19 8 12 7 -27 l-2 -53 -49 0 c-41 0 -48 3 -44 18 5 19
-15 45 -26 34 -4 -3 -4 2 0 12 5 14 4 17 -4 12 -16 -10 -15 7 1 23 10 11 8 11
-11 2 -12 -7 -21 -8 -21 -4 1 4 -1 20 -5 35 -6 19 -12 25 -24 21 -14 -5 -14
-3 2 15 19 22 32 30 22 13 -3 -5 1 -14 10 -21 8 -7 13 -19 10 -26 -3 -8 0 -13
6 -11 7 1 18 -10 25 -25 8 -16 18 -28 24 -28 14 0 11 11 -14 52 -12 20 -40 66
-62 102 l-40 66 -57 0 -58 0 0 -155z m112 102 c-2 -10 3 -16 9 -15 16 4 24
-31 12 -43 -13 -13 -45 0 -36 14 3 5 2 7 -4 4 -8 -5 -12 -42 -17 -154 -1 -13
-5 -23 -9 -23 -5 0 -5 -4 -2 -10 3 -5 -3 -10 -13 -10 -19 0 -20 8 -21 131 l-2
131 43 -4 c34 -3 42 -8 40 -21z"/>
<path d="M2610 1625 l0 -155 50 0 50 0 0 48 c0 45 1 47 29 49 25 2 34 -5 61
-47 29 -46 33 -48 80 -52 28 -1 50 -1 50 2 0 3 -15 28 -34 56 l-34 50 23 21
c55 48 35 146 -35 170 -19 7 -81 12 -137 12 l-103 1 0 -155z m185 114 c5 -5
14 -9 20 -9 5 0 4 4 -3 9 -11 6 -9 10 7 14 30 8 74 -29 65 -55 -3 -12 -2 -18
3 -15 11 7 10 -17 -1 -51 -4 -12 -11 -20 -16 -17 -5 3 -12 -4 -14 -17 -6 -24
-4 -79 3 -73 2 2 9 -1 15 -8 21 -19 -4 -37 -26 -18 -10 8 -18 19 -18 23 0 4
-13 21 -30 38 -22 23 -37 30 -60 28 -37 -3 -49 -15 -52 -52 -3 -30 -22 -51
-38 -41 -14 8 -13 58 2 73 8 8 8 15 1 24 -14 17 -13 98 1 98 7 0 6 4 -2 9 -14
8 -13 28 2 46 11 13 127 8 141 -6z"/>
<path d="M2697 1700 c-8 -11 -16 -19 -18 -17 -2 1 -1 -2 3 -7 15 -19 8 -29
-10 -15 -10 8 -5 2 12 -13 23 -21 40 -28 72 -28 23 0 51 -3 61 -6 15 -5 15 -4
3 5 -13 9 -13 11 3 11 19 0 19 1 21 47 1 18 -1 30 -5 27 -4 -2 -10 0 -14 6 -3
5 -30 10 -60 10 -42 0 -57 -4 -68 -20z m128 -30 c0 -23 -4 -25 -57 -28 l-58
-3 0 31 0 31 58 -3 c53 -3 57 -5 57 -28z"/>
<path d="M2685 1610 c3 -5 8 -10 11 -10 2 0 4 5 4 10 0 6 -5 10 -11 10 -5 0
-7 -4 -4 -10z"/>
<path d="M2990 1778 c0 -2 -2 -72 -3 -156 l-2 -152 138 0 137 0 0 41 0 41 -90
-4 c-88 -3 -90 -2 -90 20 0 21 4 22 78 22 l77 0 0 30 0 30 -77 0 c-76 0 -78 0
-78 25 0 25 1 25 90 25 l90 0 0 40 0 40 -135 0 c-74 0 -135 -1 -135 -2z m120
-33 c6 -3 10 -2 10 3 0 5 23 9 50 8 39 -1 50 -4 47 -16 -2 -12 -18 -15 -69
-14 -37 0 -65 -3 -62 -8 3 -4 -1 -8 -8 -8 -8 0 -14 -10 -15 -22 -1 -11 -8 -25
-15 -29 -10 -7 -9 -9 4 -9 9 0 18 -5 20 -12 3 -7 27 -11 66 -11 34 1 62 -3 62
-8 0 -5 -26 -9 -57 -9 -76 -1 -96 -15 -78 -56 12 -30 15 -31 81 -33 38 -1 73
-6 78 -12 6 -6 3 -9 -8 -9 -9 0 -15 -3 -13 -7 5 -8 -132 -6 -170 2 -22 5 -23
9 -23 130 l0 124 28 3 c31 4 58 2 72 -7z"/>
<path d="M3405 1768 c-27 -77 -98 -264 -106 -279 -9 -18 -6 -19 45 -19 46 0
56 3 61 20 6 17 15 20 76 20 61 0 69 -2 69 -19 0 -16 9 -20 55 -23 34 -2 54 1
52 7 -3 6 -28 76 -58 157 l-54 148 -68 0 c-45 0 -69 -4 -72 -12z m126 -29 c5
-8 9 -20 9 -26 0 -7 4 -13 10 -13 5 0 7 -6 4 -13 -2 -7 9 -41 26 -75 16 -34
30 -68 30 -75 0 -7 5 -18 10 -25 6 -6 7 -10 3 -7 -3 3 -14 -2 -24 -11 -16 -14
-19 -14 -34 10 -10 14 -25 26 -34 26 -9 0 -22 5 -29 12 -9 9 -12 9 -12 -1 0
-10 -3 -11 -14 -2 -10 8 -16 9 -21 1 -3 -5 -17 -10 -31 -10 -13 0 -24 -5 -24
-11 0 -5 -4 -7 -10 -4 -5 3 -10 2 -10 -3 0 -5 -9 -12 -19 -15 -21 -5 -35 14
-22 29 4 5 16 35 25 66 10 31 22 58 27 60 5 2 11 17 13 34 7 55 23 69 73 68
27 0 48 -6 54 -15z"/>
<path d="M3433 1676 c-3 -5 -1 -6 5 -2 16 9 15 4 -3 -42 -14 -34 -14 -41 0
-68 8 -16 15 -23 15 -16 0 6 12 12 28 12 15 0 32 4 38 8 15 9 19 42 9 66 -5
11 -3 27 5 40 12 19 12 20 -3 7 -12 -10 -21 -10 -30 -3 -15 13 -56 12 -64 -2z
m68 -51 l17 -45 -39 0 c-21 0 -39 1 -39 3 0 16 34 97 38 92 4 -3 14 -26 23
-50z"/>
<path d="M3551 1614 c0 -11 3 -14 6 -6 3 7 2 16 -1 19 -3 4 -6 -2 -5 -13z"/>
<path d="M3570 1510 c0 -5 5 -10 11 -10 5 0 7 5 4 10 -3 6 -8 10 -11 10 -2 0
-4 -4 -4 -10z"/>
<path d="M3710 1778 c0 -2 -2 -72 -3 -156 l-2 -152 138 0 137 0 0 41 0 40 -90
-3 -90 -3 0 118 0 117 -45 0 c-25 0 -45 -1 -45 -2z m64 -45 c3 -10 6 -61 7
-114 l3 -96 55 4 c69 5 101 -3 101 -23 0 -13 -17 -15 -105 -13 l-105 1 0 113
c0 63 3 120 6 129 8 21 31 20 38 -1z"/>
<path d="M3950 1738 l0 -43 50 3 50 4 0 -116 0 -116 50 0 50 0 0 115 0 115 50
0 50 0 0 40 0 40 -150 0 -150 0 0 -42z m237 13 c33 -1 41 -4 37 -16 -4 -9 -19
-15 -38 -15 -53 0 -59 -10 -57 -96 1 -102 -6 -136 -27 -132 -14 3 -18 21 -24
93 -4 51 -3 96 3 107 7 13 6 16 -4 12 -8 -3 -17 1 -20 9 -4 10 -17 14 -42 11
-25 -2 -35 1 -32 9 2 7 12 11 21 11 9 -1 16 1 16 5 0 3 28 5 62 4 35 -1 82 -2
105 -2z"/>
<path d="M4113 1560 c0 -25 2 -35 4 -22 2 12 2 32 0 45 -2 12 -4 2 -4 -23z"/>
<path d="M4340 1685 c68 -93 70 -96 70 -155 l0 -60 50 0 50 0 0 60 c0 59 2 63
63 143 89 115 87 107 20 107 l-58 -1 -35 -54 c-19 -30 -37 -55 -40 -55 -3 0
-21 25 -40 55 l-35 55 -58 0 -57 0 70 -95z m47 53 c6 -5 10 -15 7 -21 -2 -7
12 -25 31 -40 l36 -28 29 24 c16 14 26 28 23 31 -4 3 -1 6 4 6 6 0 14 -6 16
-12 4 -10 6 -10 6 -1 1 6 -3 14 -9 18 -5 3 -6 13 -3 21 5 13 7 13 14 2 7 -11
9 -11 9 1 0 11 3 11 15 1 13 -11 15 -10 12 1 -2 8 -2 10 1 6 2 -4 11 -2 20 5
11 9 10 4 -3 -13 -11 -15 -24 -24 -29 -21 -5 3 -6 0 -2 -7 10 -15 -13 -43 -30
-37 -8 3 -11 -4 -9 -20 2 -21 -5 -28 -26 -26 -7 1 -8 -8 -11 -79 -2 -42 -6
-56 -18 -56 -23 0 -39 28 -35 62 2 16 -1 35 -7 42 -7 9 -7 13 1 13 6 0 3 8 -6
18 -10 10 -20 17 -22 15 -6 -4 -30 30 -31 42 0 6 5 3 11 -5 9 -13 10 -13 6 0
-2 8 -12 14 -21 13 -11 0 -15 4 -12 13 3 8 1 13 -5 11 -6 -1 -15 7 -19 19 -7
19 -5 20 18 16 15 -3 32 -9 39 -14z"/>
<path d="M4370 1730 c0 -5 5 -10 11 -10 5 0 7 5 4 10 -3 6 -8 10 -11 10 -2 0
-4 -4 -4 -10z"/>
<path d="M4486 1653 c-6 -14 -5 -15 5 -6 7 7 10 15 7 18 -3 3 -9 -2 -12 -12z"/>
<path d="M4890 1625 l0 -155 135 0 135 0 0 41 0 41 -85 -3 -85 -4 0 118 0 117
-50 0 -50 0 0 -155z m80 89 c0 -19 -4 -33 -9 -30 -5 4 -7 -2 -5 -11 2 -10 5
-41 7 -69 4 -75 17 -86 87 -78 35 4 65 2 76 -5 14 -8 15 -11 4 -11 -13 0 -13
-1 0 -10 10 -7 -19 -10 -96 -9 l-112 1 -1 129 -2 129 26 0 c22 0 25 -4 25 -36z"/>
<path d="M5210 1625 l0 -155 135 0 135 0 0 41 0 40 -85 -3 -85 -3 0 118 0 117
-50 0 -50 0 0 -155z m72 48 c0 -43 1 -94 2 -113 l0 -36 76 1 c41 0 76 -4 77
-9 1 -5 7 -13 15 -17 7 -5 -34 -9 -98 -9 l-112 0 -1 130 c-2 125 -1 130 19
130 18 0 20 -7 22 -77z"/>
<path d="M5615 1766 c-65 -30 -95 -76 -95 -150 0 -122 150 -193 267 -127 35
20 73 69 73 95 0 3 -20 6 -45 6 -34 0 -50 -6 -69 -25 -29 -29 -55 -31 -96 -10
-30 15 -36 33 -31 90 5 52 84 73 125 33 17 -17 35 -23 69 -24 53 0 56 6 27 54
-38 61 -152 91 -225 58z m120 -17 c-3 -4 3 -5 13 -2 26 6 48 -22 32 -42 -10
-12 -8 -14 9 -10 12 2 25 6 29 9 5 3 9 -1 9 -7 0 -21 -46 -18 -76 4 -42 31
-99 28 -128 -6 -13 -14 -23 -34 -23 -43 0 -15 -2 -15 -11 -2 -8 12 -9 9 -4
-10 3 -14 7 -31 7 -37 1 -7 4 -13 8 -13 11 0 5 -59 -7 -72 -10 -9 -13 -9 -13
5 0 9 -4 17 -10 17 -5 0 -10 11 -10 25 0 14 -3 25 -8 25 -4 0 -6 20 -4 45 3
31 8 43 16 38 7 -4 6 -1 -2 9 -10 12 -10 18 2 27 10 8 16 9 21 1 3 -5 12 -10
18 -10 7 0 6 4 -3 10 -11 7 -12 12 -3 21 19 19 149 36 138 18z m60 -196 c-5
-15 -4 -16 6 -5 7 6 18 12 23 12 21 0 -45 -51 -84 -65 -60 -21 -154 1 -130 30
7 8 9 19 5 25 -3 6 10 -1 29 -14 38 -26 67 -25 99 2 9 8 17 11 17 6 0 -5 5 -1
11 9 5 9 15 17 21 17 6 0 7 -8 3 -17z"/>
<path d="M5670 1740 c-9 -6 -10 -10 -3 -10 6 0 15 5 18 10 8 12 4 12 -15 0z"/>
</g>
</svg>
